Coordinates
version=1
nRows=6
nColumns=36
inDegrees=yes

Units are S.I. units (second, meters, Newtons, ...)
If the header above contains a line with 'inDegrees', this indicates whether rotational values are in degrees (yes) or radians (no).

endheader
time	pelvis_tilt	pelvis_list	pelvis_rotation	pelvis_tx	pelvis_ty	pelvis_tz	hip_flexion_r	hip_adduction_r	hip_rotation_r	knee_angle_r	knee_angle_r_beta	ankle_angle_r	subtalar_angle_r	mtp_angle_r	hip_flexion_l	hip_adduction_l	hip_rotation_l	knee_angle_l	knee_angle_l_beta	ankle_angle_l	subtalar_angle_l	mtp_angle_l	lumbar_extension	lumbar_bending	lumbar_rotation	arm_flex_r	arm_add_r	arm_rot_r	elbow_flex_r	pro_sup_r	arm_flex_l	arm_add_l	arm_rot_l	elbow_flex_l	pro_sup_l
      4.30000000	    -11.09666644	      0.32226275	      6.77901829	      0.51636590	      0.76673843	     -0.26992369	     58.81920252	    -12.82749935	      2.36643242	     17.16481738	      0.29958258	     -4.00374352	    -11.26513372	     -7.49999987	     50.41178469	     14.99826444	      5.30472895	     74.44926820	      1.29938486	     37.23821197	    -12.69079257	     -7.49999987	    -34.41841504	      0.97731426	     -3.46429351	     61.62576840	     12.63436569	     68.40077247	    122.75090648	    101.83671938	     50.52264041	      7.29559630	     65.28099131	    128.46477772	     96.74020259
      4.31666670	    -11.03000493	      0.21934346	      6.78725486	      0.51560850	      0.76176548	     -0.27034310	     58.71442115	    -12.74601003	      2.20229726	     17.20082959	      0.30021111	     -3.87170335	    -11.40153785	     -7.49999987	     50.66908065	     14.96969396	      5.23898833	     74.83436608	      1.30610608	     36.99173603	    -13.09943159	     -7.49999987	    -34.28583914	      1.17354272	     -3.34774503	     61.57474519	     12.59539743	     68.36014589	    122.90805417	     98.30023010	     50.72322642	      7.34823719	     65.30267133	    128.62553786	     93.73461691
      4.33333330	    -11.14253348	      0.41614658	      6.44413884	      0.51914634	      0.75839028	     -0.26745940	     58.83498728	    -12.34758558	      2.94509418	     17.16225827	      0.29953791	     -3.48353113	    -11.34633940	     -7.49999987	     50.94631081	     14.77052061	      4.88642706	     75.40736611	      1.31610682	     37.43665182	    -13.18777983	     -7.49999987	    -33.68764317	      0.73142303	     -3.02506662	     61.37971502	     12.59860216	     68.37770997	    122.45615865	     98.78429321	     50.80204226	      7.32926009	     65.59798427	    128.63139163	     94.20980873
      4.35000000	    -11.24629410	      0.66218441	      6.33956623	      0.51820093	      0.75810933	     -0.26732091	     58.65862012	    -12.36875781	      3.20801704	     16.60664424	      0.28984062	     -3.34824886	    -11.26036388	     -7.49999987	     51.17513959	     14.91235086	      4.70797448	     75.75279979	      1.32213577	     37.72263410	    -13.02425732	     -7.49999987	    -33.08767994	      0.38025412	     -2.91043977	     61.02260475	     12.54258389	     68.35205285	    122.64414891	     98.55093329	     50.62679944	      7.24399777	     65.61237522	    128.75160666	     93.94834057
      4.36666670	    -11.30547862	      0.82784351	      5.95048090	      0.52179571	      0.75729600	     -0.27004977	     58.62110715	    -12.18859847	      3.73683050	     16.55587892	      0.28895460	     -3.18501642	    -11.62323501	     -7.49999987	     51.18101525	     14.94229083	      4.32148842	     76.00763871	      1.32658355	     38.03220574	    -13.01926347	     -7.49999987	    -32.31350113	      0.19665868	     -2.31038002	     60.44970240	     12.18502029	     68.17333025	    122.68754845	    102.48661569	     50.30969826	      7.24156760	     65.60114854	    128.35263794	     97.69885173
      4.38333330	    -11.31216469	      0.82692236	      5.90641531	      0.52058630	      0.75743855	     -0.27018695	     58.39066628	    -12.21208160	      3.75637963	     16.30435969	      0.28456476	     -2.99634379	    -11.55469769	     -7.49999987	     51.25330538	     15.11980237	      4.28418705	     76.18208079	      1.32962814	     37.98213494	    -13.15194579	     -7.49999987	    -31.77645593	      0.35092637	     -2.00280646	     60.07359767	     11.87074434	     68.12030389	    122.68841365	    101.80911216	     49.82173253	      7.31119584	     65.64908463	    128.33799379	     97.03985116
